<?xml version="1.0" encoding="iso-8859-1"?>
<svg version="1.1" xmlns="http://www.w3.org/2000/svg" xmlns:xlink="http://www.w3.org/1999/xlink"
   x="0px" y="0px" viewBox="0 0 24 24"  style="enable-background:new 0 0 24 24;" xml:space="preserve">
  <g>
    <path d="M11.955 0.49A12 12 0 0 0 0 12.49a12 12 0 0 0 1.832 6.373L11.838
    5.928a0.187 0.14 0 0 1 0.324 0l10.006 12.935A12 12 0 0 0 24 12.49a12 12 0 0
    0 -12 -12 12 12 0 0 0 -0.045 0zm0.375 6.467 4.416 16.553a12 12 0 0 0 5.137
    -4.213z">
    </path>
  </g>
</svg>
